<?xml version="1.0" encoding="UTF-8" standalone="no"?>
<!-- Uploaded to: SVG Repo, www.svgrepo.com, Generator: SVG Repo Mixer Tools -->

<svg
   fill="#000000"
   height="800px"
   width="800px"
   version="1.1"
   id="Capa_1"
   viewBox="0 0 488.85 488.85"
   xml:space="preserve"
   sodipodi:docname="eye.svg"
   inkscape:version="1.2.2 (b0a84865, 2022-12-01)"
   xmlns:inkscape="http://www.inkscape.org/namespaces/inkscape"
   xmlns:sodipodi="http://sodipodi.sourceforge.net/DTD/sodipodi-0.dtd"
   xmlns="http://www.w3.org/2000/svg"
   xmlns:svg="http://www.w3.org/2000/svg"><defs
   id="defs9" /><sodipodi:namedview
   id="namedview7"
   pagecolor="#ffffff"
   bordercolor="#000000"
   borderopacity="0.25"
   inkscape:showpageshadow="2"
   inkscape:pageopacity="0.0"
   inkscape:pagecheckerboard="0"
   inkscape:deskcolor="#d1d1d1"
   showgrid="false"
   inkscape:zoom="0.295"
   inkscape:cx="415.25424"
   inkscape:cy="400"
   inkscape:window-width="1309"
   inkscape:window-height="456"
   inkscape:window-x="0"
   inkscape:window-y="25"
   inkscape:window-maximized="0"
   inkscape:current-layer="Capa_1"
   showguides="true"><sodipodi:guide
     position="217.49682,300.35275"
     orientation="0,-1"
     id="guide334"
     inkscape:locked="false" /><sodipodi:guide
     position="188.49725,236.13941"
     orientation="1,0"
     id="guide336"
     inkscape:locked="false" /><sodipodi:guide
     position="273.42458,285.85297"
     orientation="0,-1"
     id="guide422"
     inkscape:locked="false" /><sodipodi:guide
     position="-751.91758,474.35021"
     orientation="0.70710678,-0.70710678"
     id="guide424"
     inkscape:locked="false" /><sodipodi:guide
     position="200.92564,273.42458"
     orientation="1,0"
     id="guide426"
     inkscape:locked="false" /></sodipodi:namedview>
<g
   id="g4"
   style="fill:#ffffff">
	<path
   d="M244.425,98.725c-93.4,0-178.1,51.1-240.6,134.1c-5.1,6.8-5.1,16.3,0,23.1c62.5,83.1,147.2,134.2,240.6,134.2   s178.1-51.1,240.6-134.1c5.1-6.8,5.1-16.3,0-23.1C422.525,149.825,337.825,98.725,244.425,98.725z M251.125,347.025   c-62,3.9-113.2-47.2-109.3-109.3c3.2-51.2,44.7-92.7,95.9-95.9c62-3.9,113.2,47.2,109.3,109.3   C343.725,302.225,302.225,343.725,251.125,347.025z M248.025,299.625c-33.4,2.1-61-25.4-58.8-58.8c1.7-27.6,24.1-49.9,51.7-51.7   c33.4-2.1,61,25.4,58.8,58.8C297.925,275.625,275.525,297.925,248.025,299.625z"
   id="path2"
   style="fill:#ffffff" />
</g>
<ellipse
   style="fill:#008080;stroke-width:0.611063"
   id="path338"
   cx="244.425"
   cy="245.46069"
   rx="55.927753"
   ry="54.892052" /><ellipse
   style="fill:#000000;stroke-width:0.611063"
   id="path480"
   cx="244.425"
   cy="243.3893"
   rx="24.856781"
   ry="23.821081" /></svg>
