<?xml version="1.0" encoding="UTF-8" standalone="no"?>
<svg
   version="1.1"
   width="256"
   height="256"
   viewBox="0 0 256 256"
   xml:space="preserve"
   id="svg10"
   sodipodi:docname="rocket.svg"
   inkscape:version="1.2.2 (b0a84865, 2022-12-01)"
   xmlns:inkscape="http://www.inkscape.org/namespaces/inkscape"
   xmlns:sodipodi="http://sodipodi.sourceforge.net/DTD/sodipodi-0.dtd"
   xmlns="http://www.w3.org/2000/svg"
   xmlns:svg="http://www.w3.org/2000/svg"><sodipodi:namedview
   id="namedview12"
   pagecolor="#ffffff"
   bordercolor="#000000"
   borderopacity="0.25"
   inkscape:showpageshadow="2"
   inkscape:pageopacity="0.0"
   inkscape:pagecheckerboard="0"
   inkscape:deskcolor="#d1d1d1"
   showgrid="false"
   inkscape:zoom="0.98243296"
   inkscape:cx="127.23514"
   inkscape:cy="28.500672"
   inkscape:window-width="1440"
   inkscape:window-height="758"
   inkscape:window-x="0"
   inkscape:window-y="25"
   inkscape:window-maximized="1"
   inkscape:current-layer="g8" />

<defs
   id="defs2">
</defs>
<g
   style="stroke: none; stroke-width: 0; stroke-dasharray: none; stroke-linecap: butt; stroke-linejoin: miter; stroke-miterlimit: 10; fill: none; fill-rule: nonzero; opacity: 1;"
   transform="translate(1.4065934065934016 1.4065934065934016) scale(2.81 2.81)"
   id="g8">
	<path
   d="m 62.37772,33.793792 c -2.004,0 -3.888,-0.78 -5.304,-2.197 -1.417,-1.417 -2.198,-3.3 -2.198,-5.304 0,-2.003 0.78,-3.887 2.198,-5.304 v 0 0 c 1.416,-1.417 3.3,-2.197 5.304,-2.197 2.003,0 3.887,0.78 5.304,2.197 2.924,2.925 2.924,7.684 0,10.608 -1.416,1.417 -3.301,2.197 -5.304,2.197 z m 0,-13.002 c -1.47,0 -2.851,0.572 -3.89,1.611 v 0 c -1.039,1.039 -1.612,2.421 -1.612,3.89 0,1.469 0.572,2.851 1.612,3.89 1.039,1.039 2.42,1.611 3.89,1.611 1.469,0 2.851,-0.572 3.89,-1.611 2.145,-2.145 2.145,-5.635 0,-7.78 -1.039,-1.039 -2.421,-1.611 -3.89,-1.611 z m -4.597,0.904 h 0.01 z"
   style="opacity:1;fill:#000000;fill-rule:nonzero;stroke:none;stroke-width:1;stroke-linecap:butt;stroke-linejoin:miter;stroke-miterlimit:10;stroke-dasharray:none"
   stroke-linecap="round"
   id="path4" />
	<path
   d="M 89.994,6.076 C 89.995,5.626 89.992,5.174 89.981,4.719 89.976,4.468 89.966,4.216 89.957,3.965 89.946,3.651 89.936,3.339 89.92,3.023 89.889,2.42 89.85,1.816 89.799,1.208 89.759,0.721 89.373,0.335 88.886,0.294 88.275,0.243 87.668,0.204 87.062,0.173 86.763,0.157 86.466,0.149 86.168,0.138 85.899,0.128 85.629,0.118 85.361,0.112 84.924,0.103 84.49,0.1 84.057,0.1 c -0.076,0 -0.151,0 -0.227,0.001 -8.853,0.046 -16.974,2.264 -25.192,6.859 -0.01,0.006 -0.015,0.017 -0.025,0.023 -6.629,3.691 -13.252,8.911 -20.115,15.775 -0.885,0.885 -1.755,1.781 -2.608,2.684 -0.033,-0.001 -0.063,-0.015 -0.097,-0.012 l -13.747,1.045 c -0.192,0.015 -0.377,0.084 -0.53,0.201 L 0.388,42.751 c -0.329,0.25 -0.47,0.676 -0.356,1.072 0.114,0.397 0.46,0.683 0.871,0.72 l 20.2,1.823 8.119,8.118 c -2.647,-0.016 -5.624,1.223 -8.004,3.602 -1.078,1.078 -9.316132,2.756625 -9.946132,4.068625 -0.882,1.869 12.68664,3.603497 2.451132,11.429375 l -1,2.483 c -0.15,0.372 -0.063,0.798 0.22,1.081 0.191,0.191 0.447,0.293 0.707,0.293 0.126,0 0.253,-0.023 0.374,-0.072 l 2.569,-1.035 c 5.12,-2.062 10.732767,2.731652 12.598767,1.851652 1.304,-0.628 1.735233,-8.232652 2.813233,-9.311652 1.886,-1.886 3.133,-4.202 3.511,-6.522 0.082,-0.502 0.111,-0.989 0.109,-1.464 l 7.915,7.912 1.824,20.202 c 0.037,0.411 0.323,0.757 0.72,0.871 0.091,0.026 0.185,0.039 0.276,0.039 0.307,0 0.604,-0.142 0.796,-0.395 L 63.232,68.39 c 0.116,-0.153 0.187,-0.337 0.201,-0.529 l 1.025,-13.478 c 0.969,-0.911 1.93,-1.839 2.879,-2.788 6.865,-6.865 12.085,-13.488 15.777,-20.118 0.005,-0.009 0.015,-0.013 0.02,-0.022 4.6,-8.226 6.818,-16.353 6.859,-25.221 0,-0.052 0,-0.105 0.001,-0.158 z M 86.43,18.219 c -0.031,0.117 -0.064,0.233 -0.096,0.35 -0.929,3.347 -2.32,6.917 -4.339,10.718 L 60.807,8.099 C 64.602,6.083 68.168,4.694 71.51,3.765 71.636,3.731 71.762,3.695 71.888,3.661 72.135,3.594 72.38,3.533 72.625,3.472 77.519,2.264 82.538,1.858 87.871,2.224 c 0.366,5.327 -0.039,10.343 -1.245,15.232 -0.064,0.253 -0.127,0.507 -0.196,0.763 z m -63.938,10.226 11.44,-0.869 c -2.062,2.285 -4.008,4.609 -5.827,6.954 -0.003,0.003 -0.007,0.005 -0.01,0.008 -0.078,0.1 -0.149,0.2 -0.226,0.3 -0.586,0.76 -1.162,1.521 -1.719,2.284 -0.112,0.154 -0.218,0.307 -0.329,0.46 -0.526,0.728 -1.046,1.456 -1.544,2.184 -0.208,0.304 -0.401,0.605 -0.604,0.908 -0.387,0.578 -0.778,1.157 -1.146,1.735 -0.422,0.66 -0.817,1.315 -1.212,1.969 L 3.65,42.782 Z M 24.5,43.041 c 0.248,-0.383 0.507,-0.769 0.765,-1.154 0.263,-0.395 0.529,-0.791 0.801,-1.186 0.337,-0.489 0.681,-0.98 1.032,-1.471 0.188,-0.264 0.38,-0.527 0.571,-0.79 0.414,-0.569 0.832,-1.138 1.265,-1.708 0.017,-0.022 0.035,-0.045 0.052,-0.067 l 24.443,24.443 c -0.028,0.021 -0.056,0.043 -0.084,0.065 -0.559,0.424 -1.117,0.833 -1.675,1.24 -0.273,0.199 -0.546,0.397 -0.819,0.592 -0.484,0.346 -0.967,0.684 -1.448,1.016 -0.408,0.281 -0.816,0.555 -1.224,0.826 -0.372,0.249 -0.745,0.5 -1.116,0.74 -0.802,0.518 -1.604,1.024 -2.402,1.505 L 23.001,45.434 C 23.48,44.638 23.984,43.84 24.5,43.041 Z m 9.043,18.99 c -0.311,1.909 -1.359,3.837 -2.951,5.429 -0.919,0.918 -1.165233,8.393652 -2.260233,8.919652 C 26.525767,77.232652 20.714,72.518 15.846,74.479 l -0.39,0.157 0.125,-0.311 C 25.085007,64.089245 12.222868,64.824625 13.076868,63.015625 13.605868,61.912625 21.714,60.419 22.632,59.501 c 1.986,-1.986 4.43,-3.054 6.523,-3.054 1.279,0 2.427,0.398 3.259,1.231 1.02,1.018 1.421,2.563 1.129,4.353 z m 27.918,5.384 -14.337,18.84 -1.569,-17.378 c 0.707,-0.424 1.416,-0.854 2.13,-1.311 0.563,-0.359 1.126,-0.74 1.689,-1.116 0.319,-0.213 0.636,-0.416 0.956,-0.636 0.709,-0.485 1.417,-0.991 2.125,-1.502 0.176,-0.127 0.351,-0.248 0.527,-0.376 0.736,-0.537 1.469,-1.093 2.202,-1.657 0.124,-0.095 0.248,-0.184 0.372,-0.28 0.004,-0.003 0.006,-0.009 0.01,-0.012 2.269,-1.76 4.521,-3.637 6.735,-5.626 z m 4.462,-17.234 c -3.514,3.514 -7.182,6.768 -10.897,9.695 L 30.217,35.068 C 33.144,31.353 36.398,27.685 39.913,24.171 46.815,17.269 53.162,12.448 58.986,9.107 L 70.777282,20.898282 80.987,31.108 c -3.341,5.824 -8.162,12.171 -15.064,19.073 z"
   style="opacity:1;fill:#000000;fill-rule:nonzero;stroke:none;stroke-width:1;stroke-linecap:butt;stroke-linejoin:miter;stroke-miterlimit:10;stroke-dasharray:none"
   stroke-linecap="round"
   id="path6"
   sodipodi:nodetypes="cccccccccscccccccccccccccccsscccccccccsccccssccccccccccccccccccccccccccccccccccccccccccccccccccsscccccccccccccccsccccccs" />
</g>
</svg>
