<?xml version="1.0" encoding="UTF-8" standalone="no"?>
<svg
   version="1.0"
   width="1280.000000pt"
   height="640.000000pt"
   viewBox="0 0 1280.000000 640.000000"
   preserveAspectRatio="xMidYMid meet"
   id="svg616"
   sodipodi:docname="glasses.svg"
   inkscape:version="1.2.2 (b0a84865, 2022-12-01)"
   xmlns:inkscape="http://www.inkscape.org/namespaces/inkscape"
   xmlns:sodipodi="http://sodipodi.sourceforge.net/DTD/sodipodi-0.dtd"
   xmlns="http://www.w3.org/2000/svg"
   xmlns:svg="http://www.w3.org/2000/svg">
  <defs
     id="defs620" />
  <sodipodi:namedview
     id="namedview618"
     pagecolor="#ffffff"
     bordercolor="#000000"
     borderopacity="0.25"
     inkscape:showpageshadow="2"
     inkscape:pageopacity="0.0"
     inkscape:pagecheckerboard="0"
     inkscape:deskcolor="#d1d1d1"
     inkscape:document-units="pt"
     showgrid="false"
     inkscape:zoom="0.41364739"
     inkscape:cx="797.78093"
     inkscape:cy="322.73865"
     inkscape:window-width="1309"
     inkscape:window-height="649"
     inkscape:window-x="0"
     inkscape:window-y="25"
     inkscape:window-maximized="0"
     inkscape:current-layer="g614" />
  <metadata
     id="metadata610">
Created by potrace 1.15, written by Peter Selinger 2001-2017
</metadata>
  <g
     transform="translate(0.000000,640.000000) scale(0.100000,-0.100000)"
     fill="#000000"
     stroke="none"
     id="g614">
    <path
       style="fill:#00cece;stroke-width:9.58456;fill-opacity:0.2176166"
       id="path319"
       transform="scale(1,-1)"
       sodipodi:type="arc"
       sodipodi:cx="3354.3062"
       sodipodi:cy="-3885.0522"
       sodipodi:rx="2266.4231"
       sodipodi:ry="2761.2849"
       sodipodi:start="6.1978546"
       sodipodi:end="3.3135931"
       sodipodi:arc-type="slice"
       d="m 5612.483,-4120.3888 a 2266.4231,2761.2849 0 0 1 -1125.8415,2627.2954 2266.4231,2761.2849 0 0 1 -2430.365,-128.3959 2266.4231,2761.2849 0 0 1 -934.9509,-2736.1669 l 2232.9806,472.604 z" />
    <path
       style="fill:#00cece;stroke-width:9.58456;fill-opacity:0.2176166"
       id="path319-3"
       transform="scale(1,-1)"
       sodipodi:type="arc"
       sodipodi:cx="9537.1084"
       sodipodi:cy="-4044.9832"
       sodipodi:rx="2266.4231"
       sodipodi:ry="2761.2849"
       sodipodi:start="6.1978546"
       sodipodi:end="3.3135931"
       sodipodi:arc-type="slice"
       d="m 11795.285,-4280.3197 a 2266.4231,2761.2849 0 0 1 -1125.841,2627.2954 2266.4231,2761.2849 0 0 1 -2430.3653,-128.3959 2266.4231,2761.2849 0 0 1 -934.9509,-2736.1669 l 2232.9806,472.6039 z" />
    <path
       style="fill:#00cece;stroke-width:7.5;fill-opacity:0.2176166"
       id="path350"
       transform="matrix(-0.98146599,-0.19163641,-0.19163641,0.98146599,0,0)"
       sodipodi:type="arc"
       sodipodi:cx="-3822.3259"
       sodipodi:cy="2883.1162"
       sodipodi:rx="2343.0803"
       sodipodi:ry="1468.6422"
       sodipodi:start="0.049382304"
       sodipodi:end="3.3135931"
       sodipodi:arc-type="slice"
       d="m -1482.102,2955.6117 a 2343.0803,1468.6422 0 0 1 -1356.3462,1260.3954 2343.0803,1468.6422 0 0 1 -2410.6785,-167.9426 2343.0803,1468.6422 0 0 1 -881.7059,-1416.3117 l 2308.5067,251.3634 z" />
    <path
       style="fill:#00cece;stroke-width:7.5;fill-opacity:0.2176166"
       id="path350-8"
       transform="matrix(-0.98146599,-0.19163641,-0.19163641,0.98146599,0,0)"
       sodipodi:type="arc"
       sodipodi:cx="-9913.3613"
       sodipodi:cy="1856.124"
       sodipodi:rx="2343.0803"
       sodipodi:ry="1468.6422"
       sodipodi:start="0.049382304"
       sodipodi:end="3.3135931"
       sodipodi:arc-type="slice"
       d="m -7573.1374,1928.6195 a 2343.0803,1468.6422 0 0 1 -1356.3462,1260.3954 2343.0803,1468.6422 0 0 1 -2410.6784,-167.9426 2343.0803,1468.6422 0 0 1 -881.706,-1416.3117 l 2308.5067,251.3634 z" />
    <path
       d="m 9685,5409 c -409,-29 -748,-83 -1607,-254 -916,-182 -1249,-225 -1747,-225 -458,-1 -671,28 -1401,190 -417,92 -520,113 -695,139 -287,44 -675,95 -925,120 -465,48 -936,42 -1630,-20 C 805,5281 504,5270 91,5296 l -94,7 6,-154 c 17,-393 94,-919 164,-1111 38,-106 62,-140 203,-278 126,-124 128,-126 153,-205 14,-44 42,-143 62,-220 79,-305 225,-699 435,-1170 138,-312 188,-406 265,-502 370,-462 1246,-737 2144,-674 432,31 706,94 963,222 468,234 822,617 1173,1269 141,261 175,348 262,670 71,264 104,362 165,487 85,177 122,192 418,177 185,-10 188,-10 231,-39 108,-75 200,-250 294,-560 103,-341 169,-512 295,-770 295,-605 667,-982 1192,-1209 751,-325 1669,-322 2353,8 243,117 429,249 595,422 211,220 353,466 469,813 42,126 67,216 156,566 90,358 136,510 178,588 35,66 101,130 190,183 90,54 114,80 162,174 146,291 290,874 272,1107 -7,89 -38,158 -85,190 -26,17 -54,22 -150,28 -129,9 -480,0 -637,-15 -55,-6 -208,-13 -340,-16 -189,-5 -265,-3 -355,9 -63,9 -230,32 -370,51 -140,19 -322,42 -405,51 -181,20 -591,27 -770,14 z M 3882.9502,4635.9966 c 432,-51 934,-197 1200,-347 176,-99 291.0498,-167.2301 366.0498,-291.2301 204,-340 112,-555.7665 -299,-1392.7665 -141,-287 -259,-294.4485 -449,-482.4485 -308,-305 -695,-491 -1181,-568 -160,-25 -601,-25 -777,0 -155,22 -352,62 -459,92 -376,110 -557.3488,234.3987 -737.3488,612.3987 -63,132 -157,416 -229,694 -123,471 -117.9891,707.2837 -59.9891,967.2837 84,381 271.2881,543.7627 965.2881,644.7627 159,24 536,64 705,76 85,6 173,12 195,14 96,9 638,-4 760,-19 z m 6052.9501,126.6512 C 10783.9,4686.6478 11104,4836 11378,4647 c 240,-165 162.448,-311.1993 146.448,-730.1993 -15,-417 -100,-848 -266,-1347 -99,-299 -51.398,-379.2492 -219.398,-555.2492 -210,-219 -427,-335 -766,-409 -297.0002,-64 -667.0002,-90 -937.0002,-65 -606,57 -1110,314 -1467,749 -179,220 -267.2989,434.4485 -436.2989,883.4485 -140,374 -187,701 -133,926 97,403 454.1494,429.6478 1271.1494,606.6478 135,29 412,67 545,75 138,8 653,-4 820,-18 z"
       id="path612"
       sodipodi:nodetypes="cccccccccccccccccccccccccccccccccccccccscccccccccccccccccccccccccccccc" />
  </g>
</svg>
