<?xml version="1.0" encoding="UTF-8" standalone="no"?>
<svg
   class="svg-icon"
   style="width: 1em; height: 1em;vertical-align: middle;fill: currentColor;overflow: hidden;"
   viewBox="0 0 1024 1024"
   version="1.1"
   id="svg6"
   sodipodi:docname="logout.svg"
   inkscape:version="1.2.2 (b0a84865, 2022-12-01)"
   xmlns:inkscape="http://www.inkscape.org/namespaces/inkscape"
   xmlns:sodipodi="http://sodipodi.sourceforge.net/DTD/sodipodi-0.dtd"
   xmlns="http://www.w3.org/2000/svg"
   xmlns:svg="http://www.w3.org/2000/svg">
  <defs
     id="defs10" />
  <sodipodi:namedview
     id="namedview8"
     pagecolor="#ffffff"
     bordercolor="#000000"
     borderopacity="0.25"
     inkscape:showpageshadow="2"
     inkscape:pageopacity="0.0"
     inkscape:pagecheckerboard="0"
     inkscape:deskcolor="#d1d1d1"
     showgrid="false"
     inkscape:zoom="0.23046875"
     inkscape:cx="1160.678"
     inkscape:cy="512"
     inkscape:window-width="1309"
     inkscape:window-height="456"
     inkscape:window-x="0"
     inkscape:window-y="25"
     inkscape:window-maximized="0"
     inkscape:current-layer="svg6" />
  <path
     d="M768 106V184c97.2 76 160 194.8 160 328 0 229.6-186.4 416-416 416S96 741.6 96 512c0-133.2 62.8-251.6 160-328V106C121.6 190.8 32 341.2 32 512c0 265.2 214.8 480 480 480s480-214.8 480-480c0-170.8-89.6-321.2-224-406z"
     fill=""
     id="path2"
     style="fill:#ffffff" />
  <path
     d="M512 32c-17.6 0-32 14.4-32 32v448c0 17.6 14.4 32 32 32s32-14.4 32-32V64c0-17.6-14.4-32-32-32z"
     fill=""
     id="path4"
     style="fill:#ffffff" />
</svg>
